<svg width="824" height="383" viewBox="0 0 824 383" fill="none" xmlns="http://www.w3.org/2000/svg">
<path d="M15 368H56" stroke="#272D33" stroke-width="30" stroke-linecap="round"/>
<path d="M60 188C62.8751 188 65.1464 187.391 66.5289 184.455C67.7508 181.859 70.0388 181.211 72.3529 179.845C75.4405 178.024 79.1172 177.509 82.0349 175.788C84.9168 174.088 87.9702 170.548 91.0863 169.603C93.311 168.928 97.0822 165.92 99.0618 164.285C101.523 162.252 104.319 160.504 106.741 158.218C108.882 156.197 112.419 155.917 114.828 154.318C118.802 151.68 123.738 150.499 127.44 147.188C128.536 146.208 130.148 146.052 131.446 144.745C132.587 143.598 133.909 143.046 134.933 142.067C137.02 140.072 139.19 138.571 141.091 136.552C144.602 132.823 149.05 128.261 154.483 126.979C156.61 126.477 159.014 123.309 161.16 122.803C162.374 122.517 162.858 121.691 163.868 121.385C164.585 121.167 167.598 120.221 168.023 119.77C168.727 119.022 171.919 116.102 172.141 115.279C172.691 113.234 177.519 110 175.516 110" stroke="#272D33" stroke-width="30" stroke-linecap="round"/>
<path d="M57 26C58.2159 27.1577 59.4757 27.1362 60.6134 28.1111C61.931 29.2402 62.0053 31.8297 63.2778 32.9979C65.0773 34.6501 66.5807 36.6792 68.4971 38.2757C70.9832 40.3469 74.9719 40.9167 77.6948 42.537C82.8366 45.5968 88.2124 49.6125 92.5132 53.8354C99.4708 60.6668 109.091 62.8573 116.456 68.9259C120.076 71.9086 125.591 74.4318 129.778 76.3539C132.66 77.6768 135.326 79.7533 138.1 81.358C139.734 82.3033 140.71 84.137 142.407 84.9547C143.718 85.5866 145.017 85.5199 146.203 86.6749C148.062 88.4852 151.034 88.3372 152.919 90.037C154.194 91.1873 156.923 91.5835 157.663 92.8519C158.244 93.8476 159.404 93.2738 159.999 94.2593C160.8 95.5853 162.163 97.1196 163.43 97.9342C165.586 99.3199 167.846 100.846 170 102" stroke="#272D33" stroke-width="30" stroke-linecap="round"/>
<path d="M193.318 299.155C223.889 299.155 254.46 299.155 285.031 299.155C286.024 299.155 287.363 298.904 288.319 299.193C289.286 299.486 288.377 297.512 288.831 296.37C289.944 293.571 290 291.227 290 288.172C290 285.336 290 282.5 290 279.665C290 278.156 290 276.648 290 275.14C290 273.479 288.761 272.763 288.685 271.312C288.384 265.579 286.193 260.515 284.702 254.992C284.337 253.641 281.23 252.672 280.281 251.667C279.283 250.611 278.093 249.193 277.211 247.993C274.938 244.899 271.168 243.265 268.954 240.336C266.99 237.739 261.02 237.244 258.284 236.353C254.318 235.061 250.825 235.116 246.592 235.116C242.256 235.116 237.92 235.116 233.584 235.116C229.752 235.116 223.034 234.291 220.138 237.049C216.579 240.439 211.387 238.928 208.116 243.159C206.137 245.72 204.172 249.12 203.11 252.208C201.986 255.482 199.029 258.035 197.922 261.257C196.516 265.349 194.436 269 193.026 273.052C189.489 283.21 190.03 295.353 190.03 306.116C190.03 316.139 195.787 324.895 199.091 334.113C202.122 342.569 207.959 348.139 213.67 354.184C216.683 357.372 218.66 360.006 222.915 361.454C227.867 363.138 232.165 364.375 237.311 365.282C244.595 366.567 252.449 366.373 259.088 362.653C261.238 361.448 263.599 361.026 265.665 359.868C267.199 359.009 270.795 359.297 271.584 357.625" stroke="#272D33" stroke-width="30" stroke-linecap="round"/>
<path d="M356 247.486C356 243.316 359.386 243.292 362.614 243.292C366.339 243.292 369.277 241.743 372.903 241.039C383.853 238.913 395.065 237 406.598 237C411.564 237 416.742 237.478 421.773 237.738C422.854 237.794 426.75 237.954 427.763 238.787C429.459 240.181 430.599 241.062 432.723 241.194C434.565 241.309 436.989 244.616 438.015 245.7C439.905 247.698 440.527 250.766 442.351 252.418C446.583 256.253 450.425 262.113 451.868 267.449C452.477 269.702 452.566 274.254 452.566 276.498C452.566 280.001 453.227 283.153 453.227 286.634C453.227 290.004 453.889 293.041 453.889 296.421C453.889 299.766 455.211 301.929 455.211 305.16C455.211 307.968 456.432 310.714 455.836 313.549C455.429 315.484 454.94 323.651 453.889 318.093" stroke="#272D33" stroke-width="30" stroke-linecap="round"/>
<path d="M439.994 339.741C437.919 341.908 437.762 345.28 435.314 346.878C431.773 349.189 427.055 352.027 423.949 355.1C420.657 358.356 415.275 359.823 411.246 361.926C407.926 363.659 403.744 364.397 400.177 364.835C397.355 365.182 394.36 364.874 391.523 364.874C389.339 364.874 388.61 363.834 386.508 363.129C383.29 362.048 381.401 358.903 378.82 356.807C376.683 355.071 374.412 353.149 372.468 351.222C369.25 348.028 367.332 344.506 364.446 341.138C361.604 337.821 361.981 333.377 360.768 329.58C358.546 322.616 361.46 311.985 365.486 306.58C367.985 303.225 370.585 300.137 373.137 296.806C373.832 295.899 378.013 295.291 379.006 295.061C379.965 294.838 380.44 293.897 381.457 293.704C383.447 293.326 385.529 293.368 387.548 292.967C391.549 292.171 396.569 291.57 400.548 291.57C405.171 291.57 412.334 289.904 416.297 292.268C417.689 293.099 419.513 293.236 421.051 293.665C423.711 294.405 430.175 293.763 431.971 296.108C432.561 296.878 434.764 296.457 435.649 296.457C436.506 296.457 436.897 296.692 437.32 297.466C437.812 298.365 441.216 298.403 442 298.552" stroke="#272D33" stroke-width="30" stroke-linecap="round"/>
<path d="M20 15V367" stroke="#272D33" stroke-width="30" stroke-linecap="round"/>
<path d="M597 189.056C595.216 189.056 593.341 188.742 591.725 189.603C590.524 190.243 588.701 191.59 587.476 191.827C584.361 192.431 581.267 193.855 578.171 194.716C574.984 195.602 572.747 198.117 569.6 199.048C561.956 201.311 554.852 209.39 551.101 216.496C549.727 219.098 548.027 223.641 545.936 225.551C545.177 226.244 545.015 230.138 544.763 231.211C543.588 236.219 542.458 241.37 542.272 246.512C542.106 251.132 540.876 256.108 540.258 260.72C539.672 265.09 539.431 269.988 538.316 274.147C536.798 279.809 537.516 285.99 536.192 291.634C534.753 297.764 535.019 303.833 535.019 310.213C535.019 314.758 538.828 321.922 541.467 325.202C543.577 327.826 544.761 331.59 546.851 334.374C548.731 336.878 551.338 338.65 553.482 340.815C559.789 347.182 566.641 355.161 574.948 358.379C578.954 359.931 583.273 359.919 587.109 361.736C589.301 362.774 593.25 364 595.681 364" stroke="#272D33" stroke-width="30" stroke-linecap="round"/>
<path d="M715 190V363" stroke="#272D33" stroke-width="30" stroke-linecap="round"/>
<path d="M808 193V349" stroke="#272D33" stroke-width="30" stroke-linecap="round"/>
<path d="M54 87.2395C54.9271 87.2395 56.4296 86.5138 56.6602 87.5889C56.9955 89.1525 57.334 90.0731 58.3463 91.1219C60.5842 93.4409 63.0226 95.3711 65.1654 97.7221C67.0451 99.7845 70.1654 101.218 71.5349 103.701C73.8737 107.942 79.4728 108.563 83 111" stroke="#FF66A2" stroke-width="30" stroke-linecap="round"/>
<path d="M53 129C56.9974 128.767 61.5924 125.507 64 122.523C65.2956 120.917 68.4947 120.675 69.5 118.432C70.6164 115.941 74.0128 115.958 75 114" stroke="#FF66A2" stroke-width="30" stroke-linecap="round"/>
<path d="M289 345C287.991 345.151 286.315 348.211 285 349" stroke="#FF66A2" stroke-width="30" stroke-linecap="round"/>
<path d="M449 318C449 325.004 449.293 332.702 449.673 339.882C450.001 346.068 452.367 351.919 452.367 358.235C452.367 363.545 460.717 365.294 465.163 365.294C467.801 365.294 480.958 363.817 482 366" stroke="#FF66A2" stroke-width="30" stroke-linecap="round"/>
<path d="M644.937 236C644.937 232.969 645.079 229.887 644.937 226.859C644.787 223.673 641.517 220.244 640.317 217.367C637.88 211.526 636.433 207.158 631.885 202.797C630.248 201.227 628.121 199.729 626.312 198.187C624.467 196.615 622.156 196.459 620.189 194.828C618.833 193.705 618.17 194.003 616.559 193.812C615.207 193.652 614.634 192.406 612.929 192.406C610.463 192.406 608.088 192.112 606 191" stroke="#FF66A2" stroke-width="30" stroke-linecap="round"/>
<path d="M716 275H805" stroke="#272D33" stroke-width="30" stroke-linecap="round"/>
<path d="M646 327C646 336.633 638.131 344.158 631.632 350.333C629.097 352.742 622.818 357.687 619.316 357.882C614.922 358.127 611.179 362 607 362" stroke="#FF66A2" stroke-width="30" stroke-linecap="round"/>
<path d="M809 293V366" stroke="#FF66A2" stroke-width="30" stroke-linecap="round"/>
</svg>
