<?xml version="1.0" encoding="UTF-8" standalone="no"?><!DOCTYPE svg PUBLIC "-//W3C//DTD SVG 1.1//EN" "http://www.w3.org/Graphics/SVG/1.1/DTD/svg11.dtd"><svg width="100%" height="100%" viewBox="0 0 750 750" version="1.1" xmlns="http://www.w3.org/2000/svg" xmlns:xlink="http://www.w3.org/1999/xlink" xml:space="preserve" xmlns:serif="http://www.serif.com/" style="fill-rule:evenodd;clip-rule:evenodd;stroke-linejoin:round;stroke-miterlimit:2;"><path d="M750,184.783l-0,380.434c-0,101.985 -82.798,184.783 -184.783,184.783l-380.434,-0c-101.985,-0 -184.783,-82.798 -184.783,-184.783l-0,-380.434c-0,-101.985 82.798,-184.783 184.783,-184.783l380.434,-0c101.985,-0 184.783,82.798 184.783,184.783Z" style="fill:#fff;"/><path d="M332.971,213.332l-12.597,-7.273c-13.856,-8 -18.606,-25.719 -10.606,-39.579c8.003,-13.856 25.722,-18.603 39.578,-10.603l58.606,33.835c13.859,8.003 18.606,25.722 10.606,39.578c-1.566,2.714 -3.506,5.078 -5.716,7.066c-2.399,3.097 -5.428,5.789 -9.03,7.869l-50.463,29.134c-14.869,8.585 -33.881,3.49 -42.466,-11.378c-8.584,-14.869 -3.49,-33.882 11.379,-42.466l10.709,-6.183Z" style="fill:#ff468e;"/><path d="M624.539,193.902c2.87,2.015 5.357,4.673 7.226,7.91c6.865,11.892 2.79,27.098 -9.1,33.963l-276.787,159.802c-11.892,6.866 -27.098,2.794 -33.963,-9.1c-6.866,-11.89 -2.792,-27.097 9.1,-33.962l237.584,-137.169l-236.42,-136.497c-12.535,-7.236 -16.829,-23.264 -9.593,-35.798c7.237,-12.534 23.264,-16.829 35.799,-9.592l270.764,156.325c2.014,1.163 3.815,2.552 5.39,4.118Zm-412.517,514.675c-0.026,-0.517 -0.039,-1.038 -0.039,-1.562l0,-668.75c0,-17.259 13.991,-31.25 31.25,-31.25c17.259,-0 31.25,13.991 31.25,31.25l0,640.625l56.25,-0c17.259,-0 31.25,13.99 31.25,31.25c0,17.259 -13.991,31.25 -31.25,31.25l-87.5,-0c-17.259,-0 -31.25,-13.991 -31.25,-31.25c0,-0.524 0.013,-1.045 0.039,-1.563Z" style="fill:#404040;"/></svg>