<?xml version="1.0" encoding="UTF-8" standalone="no"?><!DOCTYPE svg PUBLIC "-//W3C//DTD SVG 1.1//EN" "http://www.w3.org/Graphics/SVG/1.1/DTD/svg11.dtd"><svg width="100%" height="100%" viewBox="0 0 424 422" version="1.1" xmlns="http://www.w3.org/2000/svg" xmlns:xlink="http://www.w3.org/1999/xlink" xml:space="preserve" xmlns:serif="http://www.serif.com/" style="fill-rule:evenodd;clip-rule:evenodd;stroke-linejoin:round;stroke-miterlimit:2;"><path d="M120.988,206.317l-12.597,-7.273c-13.857,-8 -18.607,-25.719 -10.607,-39.578c8.003,-13.857 25.722,-18.603 39.579,-10.604l58.606,33.835c13.859,8.003 18.606,25.722 10.606,39.578c-1.567,2.714 -3.506,5.078 -5.716,7.066c-2.399,3.097 -5.428,5.789 -9.031,7.869l-50.462,29.135c-14.869,8.584 -33.882,3.49 -42.466,-11.379c-8.585,-14.869 -3.49,-33.881 11.379,-42.466l10.709,-6.183Z" style="fill:#ff468e;"/><path d="M412.555,186.887c2.87,2.015 5.357,4.673 7.226,7.91c6.866,11.892 2.791,27.098 -9.1,33.964l-276.786,159.802c-11.892,6.865 -27.098,2.793 -33.964,-9.101c-6.865,-11.89 -2.791,-27.096 9.101,-33.962l237.584,-137.169l-236.421,-136.497c-12.534,-7.236 -16.828,-23.264 -9.592,-35.798c7.237,-12.534 23.264,-16.829 35.799,-9.592l270.764,156.325c2.013,1.163 3.815,2.552 5.389,4.118Zm-412.555,234.721l0,-390.358c0,-17.259 13.991,-31.25 31.25,-31.25c17.259,0 31.25,13.991 31.25,31.25l0,390.358l-62.5,-0Z" style="fill:#404040;"/></svg>