<?xml version="1.0" encoding="UTF-8" standalone="no"?><!DOCTYPE svg PUBLIC "-//W3C//DTD SVG 1.1//EN" "http://www.w3.org/Graphics/SVG/1.1/DTD/svg11.dtd"><svg width="100%" height="100%" viewBox="0 0 6000 4198" version="1.1" xmlns="http://www.w3.org/2000/svg" xmlns:xlink="http://www.w3.org/1999/xlink" xml:space="preserve" xmlns:serif="http://www.serif.com/" style="fill-rule:evenodd;clip-rule:evenodd;stroke-linejoin:round;stroke-miterlimit:2;"><path d="M0,2576.24l0,-432.274l229.334,125.511c51.464,28.166 97.508,35.125 138.136,20.881c28.863,-10.65 54.153,-29.537 75.875,-56.665c16.181,-20.21 44.188,-29.013 66.897,-16.585l177.419,97.1c22.709,12.429 30.365,40.766 22.218,65.338c-10.95,33.031 -12.803,64.753 -5.556,95.169c9.9,41.897 40.581,76.928 92.047,105.093l597.913,327.232c61.756,33.797 114.771,78.012 159.046,132.64c45.722,54.21 72.747,117.028 81.075,188.478c9.263,71.938 -10.431,152.344 -59.081,241.25l-95.022,173.625c-12.428,22.688 -40.912,31.032 -63.625,18.594l-227.943,-124.75c-22.71,-12.406 -31.044,-40.906 -18.616,-63.625l35.875,-65.531c26.116,-47.719 32.387,-88.063 18.816,-121.031c-12.129,-33.375 -39.713,-61.875 -82.754,-85.407l-571.246,-312.646c-58.947,-32.263 -101.416,-71.31 -127.4,-117.147c-7.104,-12.228 -12.757,-25.485 -16.96,-39.766c-12.831,-43.619 -79.544,-80.506 -123.084,-67.416c-13.031,3.919 -25.978,6.404 -38.843,7.457c-52.19,4.265 -110.099,-11.01 -173.727,-45.835l-90.794,-49.69Zm630.07,-2576.24l636.753,267.539c86.235,36.233 103.581,150.872 31.928,210.997l-1298.75,1089.78l-0,-407.941l803.686,-674.372c26.872,-22.547 20.365,-65.537 -11.972,-79.125l-791.714,-332.647l-0,-74.233l630.07,0Zm4398.15,0c9.905,29.63 14.858,61.409 14.858,95.336c0,78.934 -28.281,147.2 -84.812,204.8c-56.532,56.534 -125.313,84.8 -206.375,84.8c-78.938,0 -147.219,-28.266 -204.813,-84.8c-56.531,-57.6 -84.812,-125.866 -84.812,-204.8c-0,-33.927 4.953,-65.706 14.858,-95.336l551.096,0Zm971.785,1050.44l-21.614,9.434c-27.313,11.915 -59.157,-4.272 -68.657,-32.51c-4.312,-12.828 -9.343,-26.678 -15.093,-41.543c-14.75,-40.55 -33.563,-81.585 -56.407,-123.097c-13.218,-25.925 -27.343,-49.069 -42.375,-69.431c-14.906,-20.219 -43.5,-21.032 -64.5,-7.194c-32.875,21.709 -68.531,36.281 -106.906,43.722c-53.625,9.684 -108.625,-1.741 -164.969,-34.275c-68.343,-39.466 -109.781,-93.563 -124.312,-162.294c-13.969,-69.656 -3.625,-134.506 31.031,-194.55c36.813,-63.741 90.906,-105.175 162.313,-124.306c71,-20.588 149,-6.348 234,42.718c72.031,41.6 133.625,98.104 184.781,169.513c19.209,26.195 36.779,53.315 52.708,81.36l-0,442.453Zm-0,3147.42l-347.208,-200.477c-11.188,-6.469 -19.219,-17.25 -22.188,-29.812l-55.093,-233.344c-5.625,-23.813 -28.625,-39.219 -52.907,-36.313c-56.468,6.782 -116.093,10.188 -178.812,10.219c-78.844,0.031 -161.844,-10.906 -248.906,-32.875c-87.625,-21.031 -179.5,-59.281 -275.563,-114.75c-107.156,-61.844 -195.906,-139.594 -266.281,-233.156c-69.438,-93.063 -110.406,-194.928 -122.875,-305.591c-11.938,-111.584 15.437,-225.112 82.094,-340.584c39.468,-68.356 87.125,-122.125 143,-161.303c56.812,-38.647 116.531,-66.363 179.187,-83.15c63.594,-16.256 125.281,-24.978 185.094,-26.166c59.812,-1.19 113.625,1.563 161.5,8.26c4.406,0.525 8.719,1.056 12.969,1.587c34.75,4.369 68.5,-41.022 58.812,-74.697c-11.094,-38.419 -17.844,-81.115 -20.281,-128.097c-2.438,-46.978 1.5,-96.443 11.781,-148.393c11.219,-51.416 31.219,-102.066 60,-151.95c45.875,-79.441 110.719,-140.544 194.531,-183.3c84.344,-43.685 181.719,-61.972 292.157,-54.863c67.235,4.613 136.896,20.952 208.989,49.018l-0,408.06c-11.011,-8.938 -23.362,-17.359 -37.052,-25.262c-36.969,-21.335 -72.812,-32.807 -107.625,-34.416c-33.844,-1.078 -63.656,5.734 -89.375,20.438c-25.75,14.706 -45.812,34.528 -60.219,59.468c-14.937,25.866 -24.375,56.122 -28.375,90.769c-2.531,34.253 -2.156,67.728 1.125,100.422c3.313,32.697 6.875,60.628 10.75,83.797c0.938,4.053 1.844,7.837 2.657,11.353c4.5,19.019 20.562,32.75 40.093,33.584c8.907,0.378 19.063,0.725 30.469,1.035c30.563,0.4 63.719,-2.625 99.469,-9.082c37.219,-6.846 72.125,-19.328 104.75,-37.44c12.039,-6.534 23.15,-13.987 33.333,-22.36l-0,401.004c-24.168,3.42 -48.019,5.948 -71.552,7.584c-31.281,2.016 -60.219,3.184 -86.875,3.503c-31.219,0.375 -55.156,29.334 -47.937,59.703l77.687,326.663c5.563,23.312 27.781,38.625 51.156,33.5c21.742,-4.774 47.578,-11.431 77.521,-19.96l-0,977.374Zm-641.302,-1365.56c-4.594,-19.538 -21.125,-33.972 -41.156,-34.994c-6.219,-0.316 -12.906,-0.616 -20.094,-0.897c-22.906,-0.897 -48.031,-0.016 -75.437,2.641c-26.875,1.734 -53.938,7.037 -81.25,15.912c-26.75,7.95 -52.063,19.813 -75.969,35.581c-23.875,15.772 -43.813,37.513 -59.813,65.225c-23.468,40.647 -33.687,79.697 -30.687,117.154c4.469,37.065 19.125,71.396 44,102.996c26.312,31.21 59.812,58.532 100.437,82c37.875,21.875 77.844,36.938 119.875,45.188c42.563,7.344 83.25,10.5 122,9.5c18.782,-0.25 36.094,-1.031 51.938,-2.406c26.25,-2.25 42.562,-27.813 36.531,-53.469l-90.375,-384.431Z" style="fill:#ff90bb;"/></svg>